<?xml version="1.0" standalone="no"?>
<!DOCTYPE svg PUBLIC "-//W3C//DTD SVG 20010904//EN"
 "http://www.w3.org/TR/2001/REC-SVG-20010904/DTD/svg10.dtd">
<svg version="1.0" xmlns="http://www.w3.org/2000/svg"
 width="512.000000pt" height="512.000000pt" viewBox="0 0 512.000000 512.000000"
 preserveAspectRatio="xMidYMid meet">

<g transform="translate(0.000000,512.000000) scale(0.100000,-0.100000)"
fill="#000000" stroke="none">
<path d="M2225 4998 c-402 -45 -816 -212 -1155 -464 -133 -99 -363 -329 -461
-459 -183 -244 -310 -494 -395 -773 l-35 -116 48 -50 c297 -312 536 -481 822
-580 184 -64 297 -81 531 -80 174 1 227 5 355 28 317 56 674 166 1218 377 797
309 994 374 1262 414 122 18 198 18 290 1 39 -8 72 -12 74 -10 7 7 -49 163
-105 293 -205 474 -591 897 -1049 1146 -255 139 -584 243 -867 274 -114 13
-418 12 -533 -1z m-170 -785 c82 -43 111 -97 116 -218 l4 -80 -111 -3 -111 -3
-6 81 c-6 88 -8 95 -32 86 -13 -5 -15 -37 -13 -263 3 -250 4 -258 23 -258 18
0 20 8 23 78 3 72 1 77 -18 77 -18 0 -20 6 -20 75 l0 76 133 -3 132 -3 3 -214
c2 -149 -1 -218 -9 -227 -7 -9 -32 -14 -64 -14 -63 0 -85 7 -85 26 0 19 -3 18
-46 -11 -103 -70 -265 6 -294 137 -13 62 -13 448 0 518 13 68 46 111 112 145
48 24 61 26 138 23 61 -3 96 -10 125 -25z m580 -398 l0 -410 -110 0 -110 0 -3
400 c-1 220 0 406 3 413 3 9 32 12 112 10 l108 -3 0 -410z m683 323 l-3 -93
-57 -3 -58 -3 0 -314 0 -315 -22 -5 c-13 -3 -63 -5 -113 -3 l-90 3 -3 317 -2
317 -63 3 -62 3 -3 79 c-2 44 -1 85 2 93 4 10 53 13 241 13 l236 0 -3 -92z"/>
<path d="M4750 2740 c-198 -35 -422 -165 -1071 -620 -582 -409 -848 -581
-1124 -726 -240 -126 -479 -220 -675 -265 -134 -31 -385 -38 -501 -14 -242 49
-432 157 -640 364 -193 193 -342 412 -512 757 -52 104 -98 200 -105 214 -10
24 -11 23 -11 -15 -1 -68 26 -265 54 -391 160 -710 622 -1306 1270 -1634 340
-173 672 -250 1069 -250 381 1 684 71 1031 240 816 397 1341 1236 1349 2157 0
94 -1 173 -4 176 -11 10 -88 15 -130 7z"/>
</g>
</svg>
